<svg xmlns="http://www.w3.org/2000/svg" width="22" height="22" viewBox="0 0 22 22" fill="none">
    <path fill-rule="evenodd" clip-rule="evenodd"
        d="M6.41354 17.2997C5.25856 17.2997 4.32408 18.2447 4.32408 19.3997C4.32408 20.5546 5.25856 21.4996 6.41354 21.4996C7.56852 21.4996 8.5135 20.5546 8.5135 19.3997C8.5135 18.2447 7.56852 17.2997 6.41354 17.2997ZM0.113647 1.54998C0.113647 2.12747 0.586139 2.59996 1.16363 2.59996H2.21361L5.99354 10.5693L4.57607 13.1313C3.80958 14.5383 4.81756 16.2497 6.41354 16.2497H17.9633C18.5408 16.2497 19.0133 15.7772 19.0133 15.1997C19.0133 14.6223 18.5408 14.1498 17.9633 14.1498H6.41354L7.56852 12.0498H15.3909C16.1784 12.0498 16.8714 11.6193 17.2283 10.9683L20.9873 4.15394C21.3758 3.46095 20.8718 2.59996 20.0738 2.59996H4.53407L3.83058 1.09849C3.66258 0.730996 3.28459 0.5 2.8856 0.5H1.16363C0.586139 0.5 0.113647 0.972492 0.113647 1.54998ZM16.9134 17.2997C15.7584 17.2997 14.8239 18.2447 14.8239 19.3997C14.8239 20.5546 15.7584 21.4996 16.9134 21.4996C18.0683 21.4996 19.0133 20.5546 19.0133 19.3997C19.0133 18.2447 18.0683 17.2997 16.9134 17.2997Z"
        fill="#8B96A5" />
</svg>