<svg xmlns="http://www.w3.org/2000/svg" width="21" height="21" viewBox="0 0 21 21" fill="none">
    <path fill-rule="evenodd" clip-rule="evenodd"
        d="M18.1136 0.5H2.11365C1.01365 0.5 0.123647 1.4 0.123647 2.5L0.113647 20.5L4.11365 16.5H18.1136C19.2136 16.5 20.1136 15.6 20.1136 14.5V2.5C20.1136 1.4 19.2136 0.5 18.1136 0.5ZM5.11365 7.5H15.1136C15.6636 7.5 16.1136 7.95 16.1136 8.5C16.1136 9.05 15.6636 9.5 15.1136 9.5H5.11365C4.56365 9.5 4.11365 9.05 4.11365 8.5C4.11365 7.95 4.56365 7.5 5.11365 7.5ZM11.1136 12.5H5.11365C4.56365 12.5 4.11365 12.05 4.11365 11.5C4.11365 10.95 4.56365 10.5 5.11365 10.5H11.1136C11.6636 10.5 12.1136 10.95 12.1136 11.5C12.1136 12.05 11.6636 12.5 11.1136 12.5ZM15.1136 6.5H5.11365C4.56365 6.5 4.11365 6.05 4.11365 5.5C4.11365 4.95 4.56365 4.5 5.11365 4.5H15.1136C15.6636 4.5 16.1136 4.95 16.1136 5.5C16.1136 6.05 15.6636 6.5 15.1136 6.5Z"
        fill="#8B96A5" />
</svg>